<svg xmlns="http://www.w3.org/2000/svg" xmlns:xlink="http://www.w3.org/1999/xlink">
	<title>2 Mail Icon Set</title>
	<desc>This svg provides a two icon set for a mailer graphic</desc>
	<symbol id="swift-mail" viewBox="0 0 785 293">
	   	<path d="M109,125.270756 C109,120.850799 112.573412,117.267717 117.00434,117.267717 L358.99566,117.267717 C363.416335,117.267717 367,120.852922 367,125.270756 L367,126.981213 C367,131.401169 363.426588,134.984252 358.99566,134.984252 L117.00434,134.984252 C112.583665,134.984252 109,131.399047 109,126.981213 L109,125.270756 Z M92,42.0030391 C92,37.5830826 95.5847307,34 99.9984954,34 L251.001505,34 C255.418952,34 259,37.5852053 259,42.0030391 L259,43.7134964 C259,48.1334528 255.415269,51.7165354 251.001505,51.7165354 L99.9984954,51.7165354 C95.5810484,51.7165354 92,48.1313301 92,43.7134964 L92,42.0030391 Z M0,87.1802044 C0,82.760248 3.58412488,79.1771654 8.00503305,79.1771654 L324.994967,79.1771654 C329.416025,79.1771654 333,82.7623707 333,87.1802044 L333,88.8906617 C333,93.3106181 329.415875,96.8937008 324.994967,96.8937008 L8.00503305,96.8937008 C3.58397538,96.8937008 0,93.3084955 0,88.8906617 L0,87.1802044 Z M0,249.286504 C0,244.866547 3.58177041,241.283465 8.00243649,241.283465 L214.997564,241.283465 C219.417187,241.283465 223,244.86867 223,249.286504 L223,250.996961 C223,255.416917 219.41823,259 214.997564,259 L8.00243649,259 C3.58281286,259 0,255.414795 0,250.996961 L0,249.286504 Z M64,192.59359 C64,188.173634 67.5817704,184.590551 72.0024365,184.590551 L278.997564,184.590551 C283.417187,184.590551 287,188.175756 287,192.59359 L287,194.304048 C287,198.724004 283.41823,202.307087 278.997564,202.307087 L72.0024365,202.307087 C67.5828129,202.307087 64,198.721881 64,194.304048 L64,192.59359 Z" id="flash-bars" fill="#000000"></path>
<path d="M281.642338,255.822041 L243,290.153937 L631.760406,292.404954 L528.660431,203.081262 L433.391571,121 L281.642338,255.822041 Z M355.479303,54.0754975 L292,0 L678,0 L784.027435,148.821548 L632.332703,292.296356 L483.321121,162.978867 L355.479303,54.0754975 Z" id="mail-box" stroke="#000000" stroke-width="6"></path>
	</symbol>
	<symbol id="flash-mail" viewBox="0 0 774 293">
	  <path d="M109,123.457014 C109,119.03421 112.573412,115.448819 117.00434,115.448819 L358.99566,115.448819 C363.416335,115.448819 367,119.032806 367,123.457014 L367,126.259522 C367,130.682326 363.426588,134.267717 358.99566,134.267717 L117.00434,134.267717 C112.583665,134.267717 109,130.68373 109,126.259522 L109,123.457014 Z M92,35.0081947 C92,30.5853909 95.5847307,27 99.9984954,27 L251.001505,27 C255.418952,27 259,30.5839867 259,35.0081947 L259,37.810703 C259,42.2335068 255.415269,45.8188976 251.001505,45.8188976 L99.9984954,45.8188976 C95.5810484,45.8188976 92,42.234911 92,37.810703 L92,35.0081947 Z M0,82.9963836 C0,78.5735798 3.58412488,74.988189 8.00503305,74.988189 L324.994967,74.988189 C329.416025,74.988189 333,78.5721756 333,82.9963836 L333,85.798892 C333,90.2216957 329.415875,93.8070866 324.994967,93.8070866 L8.00503305,93.8070866 C3.58397538,93.8070866 0,90.2231 0,85.798892 L0,82.9963836 Z M15,236.996384 C15,232.57358 18.5817704,228.988189 23.0024365,228.988189 L229.997564,228.988189 C234.417187,228.988189 238,232.572176 238,236.996384 L238,239.798892 C238,244.221696 234.41823,247.807087 229.997564,247.807087 L23.0024365,247.807087 C18.5828129,247.807087 15,244.2231 15,239.798892 L15,236.996384 Z M81,189.008195 C81,184.585391 84.5817704,181 89.0024365,181 L295.997564,181 C300.417187,181 304,184.583987 304,189.008195 L304,191.810703 C304,196.233507 300.41823,199.818898 295.997564,199.818898 L89.0024365,199.818898 C84.5828129,199.818898 81,196.234911 81,191.810703 L81,189.008195 Z" id="flash-bars" fill="#000000"></path>
	<path d="M229,290.424719 L616.739227,292.291183 L497.818756,188.895622 L418.996597,122 L229,290.424719 Z M344.479303,54.0754975 L281,0 L667,0 L773.027435,148.821548 L621.332703,292.296356 L472.321121,162.978867 L344.479303,54.0754975 Z" id="mail-box" stroke="#000000" stroke-width="6"></path>
	</symbol>
</svg>